<?xml version="1.0" encoding="UTF-8" standalone="no"?>
<!-- Created with Inkscape (http://www.inkscape.org/) -->

<svg
   xmlns:dc="http://purl.org/dc/elements/1.1/"
   xmlns:cc="http://creativecommons.org/ns#"
   xmlns:rdf="http://www.w3.org/1999/02/22-rdf-syntax-ns#"
   xmlns:svg="http://www.w3.org/2000/svg"
   xmlns="http://www.w3.org/2000/svg"
   xmlns:xlink="http://www.w3.org/1999/xlink"
   xmlns:sodipodi="http://sodipodi.sourceforge.net/DTD/sodipodi-0.dtd"
   xmlns:inkscape="http://www.inkscape.org/namespaces/inkscape"
   width="165mm"
   height="150mm"
   viewBox="0 0 165 150"
   version="1.1"
   id="svg8"
   inkscape:version="0.92.1 r15371"
   sodipodi:docname="logo.svg">
  <defs
     id="defs2">
    <linearGradient
       inkscape:collect="always"
       id="linearGradient9801">
      <stop
         style="stop-color:#0a00b7;stop-opacity:1;"
         offset="0"
         id="stop9797" />
      <stop
         style="stop-color:#0a00b7;stop-opacity:0;"
         offset="1"
         id="stop9799" />
    </linearGradient>
    <linearGradient
       inkscape:collect="always"
       xlink:href="#linearGradient9801"
       id="linearGradient9805"
       x1="-30.994047"
       y1="50.575932"
       x2="191.50923"
       y2="183.62355"
       gradientUnits="userSpaceOnUse" />
  </defs>
  <sodipodi:namedview
     id="base"
     pagecolor="#ffffff"
     bordercolor="#666666"
     borderopacity="1.0"
     inkscape:pageopacity="0.0"
     inkscape:pageshadow="2"
     inkscape:zoom="0.35"
     inkscape:cx="519.91514"
     inkscape:cy="560"
     inkscape:document-units="mm"
     inkscape:current-layer="layer1"
     showgrid="false"
     showguides="false"
     inkscape:window-width="1600"
     inkscape:window-height="877"
     inkscape:window-x="-8"
     inkscape:window-y="-8"
     inkscape:window-maximized="1" />
  <metadata
     id="metadata5">
    <rdf:RDF>
      <cc:Work
         rdf:about="">
        <dc:format>image/svg+xml</dc:format>
        <dc:type
           rdf:resource="http://purl.org/dc/dcmitype/StillImage" />
        <dc:title></dc:title>
      </cc:Work>
    </rdf:RDF>
  </metadata>
  <g
     inkscape:label="Capa 1"
     inkscape:groupmode="layer"
     id="layer1">
    <text
       xml:space="preserve"
       style="font-style:normal;font-weight:normal;font-size:10.58333302px;line-height:1.25;font-family:sans-serif;letter-spacing:0px;word-spacing:0px;fill:#000000;fill-opacity:1;stroke:none;stroke-width:0.26458332"
       x="24.946428"
       y="138.25"
       id="text3682"><tspan
         sodipodi:role="line"
         id="tspan3680"
         x="24.946428"
         y="138.25"
         style="font-style:normal;font-variant:normal;font-weight:normal;font-stretch:normal;font-size:50.79999924px;line-height:71.25;font-family:Papyrus;-inkscape-font-specification:Papyrus;stroke-width:0.26458332">JSG</tspan></text>
    <path
       style="fill:none;stroke-width:0.26458332"
       id="path3713"
       d="m 29.436909,181.43473 c 4.669721,-3.94613 9.892747,-6.46093 15.294689,-9.52128 1.640591,-0.9005 3.33892,-1.63333 5.1171,-2.21745 2.020078,-0.68586 4.08106,-1.0555 6.197227,-1.27483 2.302896,-0.20118 4.617934,-0.18786 6.927657,-0.19888 2.268794,0.059 4.550367,-0.131 6.80716,0.13395 2.296829,0.12001 4.445897,0.91777 6.655969,1.46238 2.167202,0.88484 4.413094,1.44127 6.673019,2.02631 2.308654,0.65006 4.692179,1.01464 6.940698,1.85956 1.723303,0.58664 3.375097,1.35052 5.151022,1.76907 1.470269,0.28893 2.973443,0.30129 4.465984,0.31616 2.040596,0.01 4.081266,0.0164 6.121886,0.0126 1.79194,0.0269 3.66925,0.10148 5.16951,-1.00363 -17.872951,9.22076 -10.63116,6.81706 -7.90012,4.34334 1.03183,-0.93462 2.04109,-1.86423 3.11053,-2.7594 3.47175,-2.77364 7.01289,-5.45887 10.4927,-8.22241 2.33884,-1.73392 4.61263,-3.54423 6.8587,-5.39526 1.45642,-1.07065 2.85315,-2.17693 4.16559,-3.41733 1.69138,-1.56947 3.36155,-3.15695 4.84668,-4.92509 0,0 10.22687,-4.3702 10.22687,-4.3702 v 0 c -1.39587,1.83546 -3.01679,3.45448 -4.69533,5.03252 -1.34675,1.26542 -2.62574,2.55026 -4.20908,3.53472 -2.33772,1.80281 -4.51677,3.81203 -6.986,5.44841 -3.46428,2.75247 -6.99035,5.42613 -10.44599,8.18932 -5.94961,4.70496 -3.62678,5.00722 -14.21719,9.56545 -1.75816,0.60306 -3.589831,0.5747 -5.431363,0.53164 -2.064864,0.004 -4.129778,0.0341 -6.1946,0.009 -1.550802,-0.0471 -3.111256,-0.12708 -4.61528,-0.54309 -1.753232,-0.52616 -3.428463,-1.26985 -5.157579,-1.8684 -2.249177,-0.73857 -4.590052,-1.15234 -6.870908,-1.78328 -2.268922,-0.55827 -4.465934,-1.28638 -6.678687,-2.02701 -2.162122,-0.57421 -4.308147,-1.20048 -6.560963,-1.30251 -2.244455,-0.11295 -4.493532,-0.046 -6.740117,-0.0584 -2.286823,0.0149 -4.579525,0.0351 -6.853738,0.30262 -2.075622,0.28571 -4.098282,0.78282 -6.072661,1.49111 -1.728922,0.66256 -3.380978,1.47092 -5.031179,2.30872 17.011467,-9.92222 7.233431,-4.72325 3.865639,-1.56789 0,0 -10.427845,4.11895 -10.427845,4.11895 z"
       inkscape:connector-curvature="0" />
    <path
       style="fill:none;stroke-width:0.26458332"
       id="path3715"
       d="m 14.069602,157.34775 c 1.154027,-2.41404 2.512399,-4.72098 4.148373,-6.838 1.224881,-1.69496 3.002996,-2.75988 4.724222,-3.87166 4.650767,-3.21053 9.504601,-5.90153 14.762618,-7.80813 1.714204,-0.65747 3.417536,-1.26004 5.215385,-1.67337 2.528049,-0.851 5.175948,-1.29161 7.814961,-1.63607 3.262108,-0.39255 6.547307,-0.46678 9.828432,-0.52603 2.636768,-0.0356 5.273764,-0.0237 7.910679,-0.0286 2.304804,0.008 4.609602,0.001 6.914409,0.008 2.034476,0.0937 4.015523,-0.0535 5.866643,-0.93684 1.490633,-0.76832 3.107327,-1.0998 4.759505,-1.26743 1.519325,-0.11392 3.044327,-0.10119 4.566819,-0.0985 1.539415,0.007 3.078861,0.007 4.61826,0.0173 2.064051,0.0142 4.128119,0.0114 6.192202,0.0148 2.33019,0.004 4.66041,0.006 6.99061,0.002 2.32718,-0.001 4.65435,0.005 6.98153,-0.001 2.75591,0.36557 5.47175,1.01091 8.21479,1.48657 3.00947,0.59308 6.00962,1.23475 9.02619,1.791 2.06612,0.38975 4.16784,0.46067 6.26389,0.49888 2.10869,0.0124 4.2175,0.0176 6.32623,0.0133 1.99617,-0.0125 3.99233,-0.0163 5.98853,-0.0176 2.49852,0.007 4.99706,0.018 7.49559,0.0268 2.74908,7.9e-4 5.49811,-0.004 8.24715,-0.0181 1.84764,-0.13202 3.65988,-0.60317 5.35654,-1.34148 -1.54876,1.04954 3.70219,-1.91488 2.0244,-0.93999 -15.47158,8.98983 -10.83093,6.62488 -7.77474,4.18893 1.46742,-1.30482 2.84156,-2.6953 4.01176,-4.27302 1.35186,-1.75111 2.14985,-3.75502 2.59837,-5.90039 0.22781,-1.33788 0.26369,-2.69537 0.29592,-4.0486 0,0 9.96675,-5.05106 9.96675,-5.05106 v 0 c -0.0276,1.40318 -0.0446,2.81101 -0.22198,4.20525 -0.34149,2.26748 -1.05421,4.46686 -2.41574,6.34155 -1.0761,1.67399 -2.36091,3.15727 -3.85724,4.46854 -3.53193,3.82629 -8.6554,5.97745 -13.45628,7.91717 -1.80795,0.56759 -3.6355,1.02432 -5.54975,0.98794 -2.7323,-0.0139 -5.4646,-0.019 -8.19694,-0.0183 -2.52354,0.009 -5.04709,0.0193 -7.57062,0.0285 -1.98652,0.001 -3.97303,0.002 -5.95956,-0.002 -2.1206,0.003 -4.24172,0.0344 -6.36184,-0.026 -2.12681,-0.0721 -4.25359,-0.20838 -6.33707,-0.67464 -2.98465,-0.61423 -5.9676,-1.23523 -8.96039,-1.80904 -2.71589,-0.47257 -5.42535,-1.12326 -8.1789,-1.27746 -2.32628,-0.007 -4.65256,2e-4 -6.978848,-7.9e-4 -2.331931,-0.004 -4.663879,-0.002 -6.995805,0.002 -2.075821,0.003 -4.151636,1.6e-4 -6.227445,0.008 -1.542688,0.005 -3.085346,-0.008 -4.628039,-0.005 -1.493909,0.008 -2.994202,0.0108 -4.47676,0.21838 -1.595549,0.27632 -3.10347,0.79864 -4.581994,1.45843 -1.982361,0.59726 -4.019494,0.65539 -6.080336,0.58359 -2.305455,0.004 -4.610867,-0.007 -6.916322,-0.008 -2.616957,-0.0142 -5.234152,-0.019 -7.851003,0.012 -3.248826,0.0565 -6.503889,0.17188 -9.725527,0.62584 -2.643976,0.42933 -5.262629,0.98132 -7.819176,1.79061 -1.749062,0.50665 -3.438104,1.15487 -5.149239,1.77421 -0.942175,0.37132 -1.88772,0.73145 -2.805277,1.16159 -0.278146,0.13039 -1.09116,0.56352 -0.826827,0.40701 10.814441,-6.40315 11.530854,-6.87545 8.113416,-4.68782 -1.744197,0.99556 -3.575264,2.02167 -4.917615,3.53502 -1.682858,1.98389 -3.126845,4.14803 -4.201947,6.52445 0,0 -10.200964,4.68763 -10.200964,4.68763 z"
       inkscape:connector-curvature="0" />
    <path
       style="fill:none;stroke-width:0.26458332"
       id="path3717"
       d="m 13.546674,135.20536 c 5.664578,-7.21895 12.533504,-13.32355 19.358097,-19.40659 8.907946,-7.41895 18.244124,-14.38264 28.048389,-20.581082 7.2283,-4.569873 15.473658,-8.894919 22.77015,-12.931717 7.781644,-3.533539 15.89573,-6.878933 24.54749,-7.313972 4.72374,-0.237524 5.69097,0.181933 10.2583,0.967192 8.44147,2.121546 15.5798,6.973258 22.38315,12.19018 4.15718,3.377684 7.90817,7.196352 11.60111,11.063597 0.416,0.465584 0.83199,0.931162 1.24799,1.396752 0,0 -9.44769,5.70458 -9.44769,5.70458 v 0 c -0.39665,-0.46142 -0.7933,-0.92284 -1.18995,-1.38426 -3.60005,-3.85537 -7.22852,-7.691729 -11.31932,-11.040785 -6.60262,-5.182947 -13.57809,-9.941071 -21.88899,-11.882779 -4.47823,-0.694229 -5.38675,-1.079473 -10.005673,-0.779716 -8.46522,0.549367 -16.407905,3.860977 -24.01411,7.366153 3.387085,-2.7451 3.539741,-2.74379 -5.724961,3.042364 -7.466087,4.662853 -14.69766,9.826453 -21.630624,15.247553 -2.121525,1.65888 -4.170905,3.40802 -6.256356,5.11203 -6.538513,5.87032 -13.144164,11.75667 -18.459537,18.80155 0,0 -10.277465,4.42895 -10.277465,4.42895 z"
       inkscape:connector-curvature="0" />
    <path
       style="fill:none;stroke-width:0.26458332"
       id="path3719"
       d="m 36.652999,128.80167 c 20.263826,0.36807 40.498508,2.0871 60.591064,4.70985 6.824497,0.89083 13.625087,1.95604 20.437637,2.93406 36.0256,5.54432 71.7015,13.05811 107.3457,20.61509 0,0 -7.52185,5.21784 -7.52185,5.21784 v 0 c -3.50588,-0.81362 -25.21533,-5.85766 -27.80908,-6.43349 -25.99875,-5.77194 -52.1525,-10.91731 -78.5012,-14.82119 -6.89348,-0.91115 -13.774288,-1.92388 -20.680429,-2.73346 -19.22014,-2.2531 -38.644914,-3.72437 -58.011583,-3.18099 -1.608455,0.0451 -3.21141,0.20857 -4.817113,0.31286 0,0 8.966854,-6.62057 8.966854,-6.62057 z"
       inkscape:connector-curvature="0" />
    <path
       style="fill:none;stroke-width:0.26458332"
       id="path3721"
       d="m 61.624937,114.56335 c 9.625097,0.09 18.982362,2.69736 28.251282,5.02161 10.706191,2.839 21.208391,6.4342 31.424171,10.70831 4.65603,2.00657 9.22569,4.19416 13.79695,6.38165 3.20192,1.70296 6.36203,3.48186 9.56507,5.18683 7.86716,4.33382 15.67957,8.76375 23.64776,12.91115 2.67845,1.26112 5.27086,2.69502 7.94339,3.96785 0.2771,0.13198 2.40363,1.15973 2.9513,1.18174 0.3091,0.0124 0.57814,-0.22029 0.86722,-0.33043 -2.95609,1.53179 -5.75222,3.42274 -8.86827,4.59538 -0.51239,0.19283 0.51049,-0.97779 0.65704,-1.50529 0.22866,-0.823 0.36539,-1.67187 0.46149,-2.52062 0.58853,-5.19809 -0.01,-10.27141 -0.55869,-15.44275 -1.73027,-13.04896 -5.30407,-25.71435 -9.0743,-38.28867 -2.45981,-7.084057 -4.41282,-14.546632 -8.29859,-21.036253 -1.04226,-1.740686 -2.26684,-3.365505 -3.40026,-5.048255 -7.46294,-9.618305 -17.3493,-16.9632 -28.3615,-22.070142 -1.79915,-0.834361 -3.66981,-1.504968 -5.50471,-2.257451 -3.8384,-1.394968 -7.7638,-2.564712 -11.78744,-3.285927 -1.50635,-0.270002 -3.28258,-0.610439 -4.83016,-0.244959 -0.793969,0.187505 -1.509263,0.619921 -2.263894,0.929881 2.170364,-1.029722 4.257984,-3.922398 6.511104,-3.089169 1.70699,0.631266 -2.4359,2.717318 -3.47361,4.21247 -1.31218,1.89061 -2.490074,3.878152 -3.556945,5.917269 -2.561982,4.896726 -4.571812,10.061054 -6.204371,15.334387 -0.858215,2.772119 -1.498504,5.607069 -2.247757,8.410602 -2.289117,9.916117 -3.587247,20.132107 -2.612779,30.311047 0.491985,5.13911 1.065379,6.65476 2.302886,11.54156 2.523768,7.00274 6.942976,12.78731 13.073626,17.02154 3.88967,2.68646 5.63041,3.23338 9.88866,5.13626 4.89235,1.75347 10.15016,2.89074 15.30741,1.37892 1.84875,-0.54195 4.05452,-0.89053 5.26129,-2.39229 0.76409,-0.95086 -3.80023,1.58424 -3.6402,0.37496 0.39665,-2.99739 3.0822,-5.20257 4.6233,-7.80386 1.25486,-3.7674 2.92737,-7.42058 3.76461,-11.30221 1.07203,-4.97022 1.62382,-10.05524 1.93664,-15.13013 1.02933,-16.698703 -0.82086,-33.808876 -5.33613,-49.919239 -1.299,-4.634775 -3.19092,-9.082516 -4.78638,-13.623774 -2.04449,-3.694329 -3.75092,-7.597089 -6.13347,-11.082991 -6.8589,-10.035272 -18.28121,-18.996079 -30.587771,-20.847053 -2.402771,-0.361391 -4.859154,-0.06535 -7.288733,-0.09802 -2.252829,0.58395 -4.452025,1.441274 -6.758493,1.751851 -0.969701,0.130575 3.10029,-2.084907 2.677808,-1.202366 -1.190749,2.487397 -3.857053,4.029227 -5.187436,6.444823 -3.854146,6.998032 -5.131258,14.922538 -5.439913,22.795443 -0.194101,4.950944 0.398015,9.901496 0.597022,14.852245 0.784857,5.01705 1.311002,10.081468 2.354569,15.051153 2.733818,13.019027 7.23751,25.907798 14.349587,37.214188 5.171482,8.22134 6.736837,9.06344 13.37665,15.65544 2.41805,1.73886 4.72332,3.64637 7.25414,5.21659 7.15066,4.43655 16.11054,7.80285 24.54334,8.59475 1.28986,0.12113 2.59067,0.0448 3.886,0.0672 0.95234,-0.36653 3.79949,-1.49081 2.85702,-1.0996 -2.40682,0.99906 -4.77604,3.7402 -7.25066,2.92338 -1.63632,-0.54012 0.71497,-3.42952 0.52775,-5.14248 -0.33,-3.01927 -1.07861,-6.00149 -2.05991,-8.87584 -3.6178,-10.59689 -6.40717,-13.87785 -12.38453,-23.73585 -3.26872,-4.16982 -6.3345,-8.507027 -9.80615,-12.509474 C 97.061392,82.487922 83.125743,70.867571 67.386604,62.907002 64.876923,61.637653 62.219426,60.68456 59.635839,59.573339 64.694474,53.012374 45.715859,61.508533 48.62169,59.26221 c 1.614657,-1.248193 4.436033,-3.347823 5.83316,-1.860158 1.528432,1.627478 -1.533652,4.311716 -1.436018,6.542246 0.423225,9.668894 4.448548,15.551573 8.527883,24.298449 11.939294,19.923893 27.863824,36.926343 46.411395,50.835713 8.38331,6.28689 12.31539,8.31111 20.97156,13.40179 3.80681,1.86842 8.61813,4.70317 13.0448,5.43738 0.99189,0.16452 3.85223,-0.84825 2.99984,-0.31501 -11.75184,7.35161 -6.8241,5.90138 -9.69908,1.36878 -0.74485,-1.17431 -1.74388,-2.1666 -2.61581,-3.2499 -3.09984,-3.16395 -6.60034,-5.8933 -10.45253,-8.08096 -2.17916,-1.23755 -4.53457,-2.18679 -6.79534,-3.26398 0,0 9.22246,-6.06451 9.22246,-6.06451 v 0 c 2.19257,1.16601 4.451,2.24265 6.56172,3.55514 3.8333,2.38364 7.37046,5.20672 10.57825,8.382 0.97276,1.1306 2.07075,2.16452 2.91829,3.39179 0.68855,0.99705 2.42669,2.29822 1.65806,3.23492 -2.62243,3.19585 -6.49952,5.18891 -10.15492,7.11988 -0.84323,0.44544 -1.93421,0.016 -2.85002,-0.24999 -4.47621,-1.30002 -8.39316,-3.8649 -12.41884,-6.09862 -8.21638,-5.25786 -12.37913,-7.67683 -20.35992,-13.94263 C 82.277745,129.34576 66.348932,112.26272 53.836712,92.627687 49.438991,84.197358 44.983317,77.93597 43.839206,68.42934 c -0.279683,-2.323954 -0.667954,-5.189228 0.85067,-6.970453 3.383595,-3.968692 10.671643,-9.7331 17.129403,-9.056113 2.102778,0.22044 4.080774,1.108315 6.121161,1.662472 2.506525,1.203497 5.085393,2.266685 7.519578,3.610496 20.251123,11.179773 36.819122,27.77028 50.648822,46.108498 6.4888,10.08904 8.96371,12.80118 13.30323,23.53468 1.15963,2.86827 2.16319,5.82612 2.75794,8.86223 0.35897,1.83249 1.26369,4.16104 0.0754,5.60146 -5.79216,7.02102 -8.1942,7.2161 -14.23791,8.68057 -1.27609,-0.0925 -2.56157,-0.0974 -3.82829,-0.27745 -8.38045,-1.19092 -17.19107,-4.76006 -24.245863,-9.35619 -2.521386,-1.64266 -4.812151,-3.6147 -7.218224,-5.42205 -6.510322,-6.74558 -8.179546,-7.75528 -13.203359,-16.08134 C 72.557099,107.80008 68.240663,94.706698 65.477556,81.596822 64.425514,76.605293 63.840039,71.526709 63.021283,66.491651 62.713777,61.541074 62.04845,56.599785 62.098766,51.639924 c 0.07991,-7.877098 0.983771,-15.768348 4.506762,-22.93626 4.922628,-10.015631 16.097276,-15.225023 26.660932,-16.86994 2.449647,0.124198 4.93718,-0.07416 7.34895,0.372596 12.38761,2.294688 23.6207,11.572044 30.33094,21.903906 2.32805,3.584535 3.96961,7.5708 5.95442,11.356202 1.53109,4.615831 3.34208,9.148061 4.59327,13.847493 2.67705,10.054888 4.65892,22.799873 5.34812,33.124123 0.61604,9.228306 0.53492,22.710906 -1.10092,32.017006 -0.6784,3.85933 -2.17611,7.52882 -3.26416,11.29323 -1.39892,2.6541 -2.06099,5.85525 -4.19676,7.96232 -3.39024,3.34467 -12.85677,10.49055 -19.44666,12.12608 -5.31674,1.31955 -10.64353,0.0305 -15.6067,-1.85795 -4.257094,-1.98859 -6.104301,-2.6292 -10.004201,-5.36911 -6.281637,-4.41322 -10.847991,-10.36926 -13.415632,-17.6064 -1.217843,-5.01883 -1.779122,-6.54036 -2.237573,-11.81081 -0.897919,-10.32262 0.466328,-20.664345 2.759022,-30.718962 0.727993,-2.821466 1.353695,-5.671322 2.183976,-8.464399 1.527866,-5.139767 3.534416,-10.557547 5.876978,-15.395016 0.647719,-1.337562 4.699487,-8.942816 6.391116,-10.273766 3.744969,-2.94649 8.058824,-5.087397 12.088244,-7.631096 0.83372,-0.227481 1.64408,-0.57177 2.50116,-0.682445 1.48419,-0.191654 3.45018,0.232698 4.85685,0.54811 3.94234,0.883971 7.76839,2.205871 11.52005,3.692763 1.81733,0.798457 3.67087,1.519106 5.45199,2.395366 11.00438,5.413856 20.95618,12.899649 28.69639,22.444424 1.19942,1.691441 2.49169,3.320735 3.59827,5.074325 4.08551,6.474293 6.134,13.995405 8.40272,21.225686 3.54595,12.70784 6.86644,25.49122 8.97205,38.53114 0.71818,5.14029 1.47665,10.19779 1.24584,15.40371 -0.039,0.87887 -0.12881,1.75632 -0.25726,2.62663 -0.0919,0.62232 0.0959,1.45996 -0.40251,1.84375 -3.22086,2.48012 -6.90395,4.29362 -10.35593,6.44043 -1.6742,-0.1887 -2.49936,-0.7071 -4.00631,-1.5027 -2.58034,-1.3623 -5.10064,-2.83693 -7.71553,-4.13449 -7.88409,-4.3297 -15.72723,-8.74165 -23.74477,-12.82146 -3.29905,-1.60444 -6.61341,-3.19385 -9.79463,-5.02474 -4.41591,-2.28857 -8.86224,-4.51503 -13.39227,-6.57221 -10.04818,-4.35828 -20.399166,-8.0349 -31.005994,-10.78859 -9.445011,-2.28589 -19.027915,-4.76393 -28.831945,-4.29365 0,0 9.017876,-6.55187 9.017876,-6.55187 z"
       inkscape:connector-curvature="0" />
    <path
       style="fill:none;stroke-width:0.26458332"
       id="path3723"
       d="m 42.645906,218.41135 c 1.163199,-11.58832 5.432531,-22.57378 9.341252,-33.45071 5.127236,-14.11805 10.451809,-28.15036 16.21482,-42.02066 2.318057,-5.50445 4.841955,-10.95574 8.840804,-15.44671 4.066413,-3.51493 2.072063,-1.91557 11.816722,-7.10978 0.447821,-0.2387 2.766116,-0.49994 3.133117,-0.46352 2.418371,0.24 4.036901,1.18923 6.302986,2.15226 1.67055,1.02384 3.399243,1.95835 5.011643,3.07151 5.33312,3.68185 9.72635,7.51783 14.60965,11.86451 9.74674,8.67572 19.02468,17.8231 28.26618,27.0276 9.66458,10.24691 20.40261,19.77354 28.35352,31.49692 0.89762,1.67719 1.48524,2.34502 1.65161,4.26797 0.34016,3.93158 -2.23274,7.78684 -3.96502,11.08183 -2.98144,5.08312 -6.21001,10.03175 -10.08118,14.48914 -2.36271,2.7205 -3.39929,3.63372 -5.9563,6.13372 -3.04603,2.77412 -6.35526,5.26002 -9.92303,7.32672 -4.16355,2.4118 -8.32204,4.83658 -12.56794,7.10026 -1.67977,0.89556 -5.36388,2.15091 -7.15578,2.79629 -5.99237,1.90682 -12.2547,2.85687 -18.5335,2.96071 -3.6034,0.19406 -6.91464,-0.79778 -10.141068,-2.27732 -2.544649,-1.01493 -4.91894,-2.35978 -7.308313,-3.6822 -2.54009,-1.61952 -4.878821,-3.53632 -7.3948,-5.18629 -2.425528,-1.74862 -4.767567,-3.60015 -7.204461,-5.33393 -2.083033,-1.49079 -4.297003,-2.77836 -6.451711,-4.15934 -2.224966,-1.36537 -4.625652,-2.42088 -6.921487,-3.66434 -2.518688,-1.22338 -4.94343,-2.64561 -7.509065,-3.77193 -1.873999,-0.7362 -3.784867,-1.34903 -5.654897,-2.08854 -1.213451,-0.38349 -2.478318,-0.70819 -3.60276,-1.31557 -0.995029,-0.57242 -2.017051,-1.12706 -2.898585,-1.87392 -0.155337,-0.17685 -0.310673,-0.3537 -0.46601,-0.53055 0,0 9.604208,-5.8344 9.604208,-5.8344 v 0 c 0.126045,0.12723 0.252087,0.25446 0.378132,0.38168 0.864351,0.63343 1.810046,1.17321 2.764496,1.6563 1.167241,0.46388 2.356668,0.85723 3.539583,1.27636 1.854178,0.76037 3.77091,1.35968 5.599821,2.18607 2.549237,1.20729 5.028904,2.56213 7.547009,3.83124 2.332906,1.23403 4.761357,2.30073 6.991163,3.7199 2.172657,1.37721 4.363812,2.72562 6.453946,4.22843 2.415948,1.7371 4.726766,3.6065 7.157347,5.32224 2.47387,1.68326 4.838126,3.53341 7.40509,5.08032 2.335902,1.34523 4.724862,2.57191 7.211582,3.61989 3.11252,1.34689 6.3058,2.14401 9.73496,1.9669 6.16124,-0.17829 12.29555,-1.11334 18.14338,-3.11393 1.17686,-0.44276 2.36773,-0.8499 3.53057,-1.32826 1.18981,-0.48946 4.50152,-2.41057 3.52419,-1.57388 -1.69681,1.45262 -3.82047,2.31542 -5.73479,3.46635 -1.14777,0.69006 2.31456,-1.35036 3.43514,-2.08375 3.21162,-2.10194 3.62235,-2.58247 6.60133,-5.04391 2.56727,-2.44239 3.65857,-3.38487 6.04025,-6.04215 3.89524,-4.34597 7.10933,-9.20618 10.05473,-14.23162 1.44662,-2.77427 4.10867,-7.03143 4.05921,-10.29305 -0.0259,-1.71077 -0.59486,-2.47216 -1.30759,-4.01154 -7.15619,-12.05057 -17.41442,-21.92542 -26.87198,-32.12784 -3.01937,-3.04445 -5.98704,-6.14107 -9.05811,-9.13336 -6.29048,-6.12912 -12.69414,-12.01964 -19.44373,-17.64065 -4.57446,-3.80957 -10.049921,-8.10412 -15.206041,-11.28391 -1.665706,-1.02724 -3.453731,-1.84145 -5.180597,-2.76217 -2.672112,-0.89814 -3.647681,-1.54398 -6.288416,-1.49474 -0.568203,0.0106 -1.126302,0.16955 -1.675257,0.31658 -0.439941,0.11783 -1.665674,0.7191 -1.281041,0.4752 17.792986,-11.28282 9.564902,-5.77783 7.064028,-4.09433 -4.381455,4.28825 -7.051997,9.8335 -9.57921,15.34907 -0.826093,1.89393 -4.196617,9.60558 -4.874077,11.22882 -4.251905,10.18779 -7.924557,20.60141 -11.798157,30.93518 -3.706215,10.55156 -7.854797,21.29348 -8.389379,32.58488 0,0 -9.958187,5.07395 -9.958187,5.07395 z"
       inkscape:connector-curvature="0" />
    <rect
       style="fill:url(#linearGradient9805);stroke-width:0.26458332;fill-opacity:1"
       id="rect3744"
       width="154.46756"
       height="92.259018"
       x="16.630953"
       y="73.994041" />
  </g>
</svg>
